<svg width="1637" height="3339" viewBox="0 0 1637 3339" fill="none" xmlns="http://www.w3.org/2000/svg">
<g clip-path="url(#clip0)">
<rect width="8021" height="3339" transform="translate(-6384)" fill="white"/>
<g filter="url(#filter0_f)">
<path d="M1509.78 1640.89C1482.59 1655.01 1475.39 1642.34 1465.97 1654.06C1456.56 1665.77 1462.2 1672.44 1462.52 1692.68C1462.83 1712.93 1460.82 1714.9 1445.09 1725.38C1429.36 1735.86 1413.94 1739.2 1406.51 1737.07C1399.08 1734.94 1380.48 1733.55 1368.68 1707.48C1356.88 1681.42 1360.76 1650.33 1347.72 1638.51C1334.67 1626.69 1323.19 1620.26 1304.99 1615.73C1286.78 1611.21 1267.14 1615.34 1254.33 1604.86C1241.52 1594.39 1235.3 1567.95 1234.6 1549.63C1233.9 1531.31 1247.96 1486.47 1254.67 1472.7C1261.37 1458.93 1289.18 1403.17 1314.15 1400.35C1339.12 1397.53 1356.64 1408.69 1370.68 1421.04C1384.71 1433.39 1383.35 1432.96 1391.86 1452.71C1400.37 1472.45 1404.47 1484.99 1423.98 1495.38C1443.5 1505.78 1457.98 1482.17 1481.34 1480.01C1504.69 1477.85 1518.08 1479.5 1545.01 1505.72C1571.95 1531.95 1561.49 1562.88 1554.74 1582.71C1547.98 1602.53 1536.96 1626.78 1509.78 1640.89Z" fill="#7D5A8E"/>
</g>
<g filter="url(#filter1_f)">
<path d="M658.809 1717.81C676.604 1729.56 671.114 1737.89 681.525 1739.79C691.937 1741.68 694.208 1736.19 706.702 1729.56C719.196 1722.92 721.089 1723.49 732.826 1729.56C744.563 1735.62 751.756 1743.77 752.892 1748.89C754.028 1754 759.328 1765.56 747.023 1780.91C734.719 1796.26 714.085 1803.85 711.056 1815.41C708.027 1826.97 707.838 1835.87 711.056 1848.19C714.274 1860.51 723.361 1870.93 721.089 1881.93C718.818 1892.92 704.431 1905.05 693.262 1911.3C682.093 1917.55 649.534 1923.43 638.743 1923.81C627.953 1924.19 584.035 1925.32 574.002 1911.3C563.97 1897.28 565.105 1883.25 568.134 1870.93C571.163 1858.62 571.352 1859.56 580.817 1848.19C590.282 1836.82 596.719 1830.38 596.719 1815.41C596.719 1800.43 577.221 1799.3 568.134 1786.03C559.048 1772.76 555.64 1764.24 563.023 1739.79C570.406 1715.34 593.122 1711.74 607.698 1709.47C622.274 1707.19 641.015 1706.06 658.809 1717.81Z" fill="#7D5A8E"/>
</g>
<path d="M588.402 1449.46C682.377 1410.48 699.591 1469.23 763.5 1420.13C827.408 1371.02 793.907 1344.3 845.87 1296.69C897.832 1249.09 914.65 1226.06 977.57 1218.55C1040.49 1211.04 1026.09 1208.4 1079.11 1232.87C1132.12 1257.33 1177.36 1295.72 1214.75 1342.51C1252.13 1389.29 1317.08 1466.32 1250.06 1521C1183.05 1575.67 1087.94 1537.04 1076.84 1623.78C1065.74 1710.52 1068.4 1701.48 1062.78 1781.24C1057.16 1860.99 1059.74 1900.47 973.734 1966.41C887.732 2032.35 798.834 2036.64 699.716 1996.66C600.598 1956.68 579.286 1945.09 554.143 1835.12C529 1725.16 472.506 1708.35 481.314 1628.56C490.121 1548.78 494.426 1488.44 588.402 1449.46Z" fill="white"/>
<g filter="url(#filter2_f)">
<path d="M755.956 2690.11C809.305 2705.55 793.332 2718.02 824.344 2719.88C855.356 2721.74 861.882 2713.63 898.735 2703.03C935.588 2692.42 941.236 2693.09 976.355 2700.84C1011.47 2708.59 1033.18 2719.73 1036.76 2727.01C1040.34 2734.28 1056.56 2750.49 1020.63 2773.64C984.689 2796.79 923.689 2809.44 915.159 2826.34C906.629 2843.25 906.429 2856.1 916.491 2873.58C926.553 2891.06 953.974 2905.31 947.671 2921.34C941.368 2937.36 899.114 2956.04 866.183 2965.99C833.252 2975.93 736.747 2987.12 704.703 2988.57C672.658 2990.02 542.213 2995.34 511.833 2975.98C481.454 2956.61 484.259 2936.31 492.758 2918.31C501.257 2900.31 501.858 2901.66 529.519 2884.49C557.18 2867.31 576.042 2857.49 575.434 2835.92C574.826 2814.35 516.846 2814.35 489.309 2796C461.772 2777.65 451.301 2765.65 472.245 2729.81C493.188 2693.97 560.536 2686.88 603.753 2682.38C646.971 2677.88 702.607 2674.67 755.956 2690.11Z" fill="#7D5A8E"/>
</g>
<path d="M710.179 3148.48C597.083 3087.57 636.051 3043.09 538.677 3013.09C441.302 2983.09 444.826 3025.35 358.695 3004.84C272.563 2984.34 237.785 2981.56 178.903 2931.37C120.021 2881.19 129.548 2894.88 107.825 2837.02C86.1014 2779.17 83.4336 2720.94 94.8668 2665.21C106.3 2609.48 122.307 2514.8 227.304 2544.65C332.302 2574.49 376.035 2675.62 463.787 2641.28C551.538 2606.94 541.154 2609.23 618.043 2573.72C694.933 2538.2 728.567 2516.03 859.48 2556.47C990.393 2596.9 1067.86 2671 1113.68 2776.26C1159.51 2881.51 1166.66 2905.65 1087.86 2982.84C1009.07 3060.02 1040.61 3116.98 961.048 3149.78C881.491 3182.57 823.275 3209.39 710.179 3148.48Z" fill="white"/>
<g filter="url(#filter3_f)">
<path d="M-648.225 510.892C-675.408 525.005 -682.614 512.342 -692.029 524.058C-701.444 535.775 -695.796 542.435 -695.485 562.681C-695.173 582.927 -697.177 584.901 -712.909 595.381C-728.642 605.86 -744.062 609.205 -751.488 607.072C-758.915 604.94 -777.518 603.546 -789.318 577.482C-801.118 551.419 -797.235 520.326 -810.282 508.506C-823.329 496.685 -834.812 490.262 -853.014 485.735C-871.216 481.208 -890.862 485.342 -903.673 474.865C-916.484 464.387 -922.696 437.954 -923.398 419.631C-924.099 401.307 -910.038 356.47 -903.335 342.7C-896.632 328.931 -868.82 273.167 -843.849 270.349C-818.878 267.53 -801.358 278.692 -787.323 291.039C-773.288 303.386 -774.649 302.965 -766.142 322.71C-757.635 342.455 -753.53 354.987 -734.016 365.385C-714.503 375.783 -700.015 352.166 -676.664 350.006C-653.313 347.846 -639.925 349.504 -612.986 375.724C-586.047 401.945 -596.505 432.88 -603.264 452.705C-610.023 472.531 -621.041 496.779 -648.225 510.892Z" fill="#7D5A8E"/>
</g>
<g filter="url(#filter4_f)">
<path d="M1527.44 363.765C1427.21 336.422 1503.69 266.435 1397.67 160.994C1291.65 55.5525 1483.81 39.806 1523.63 121.55C1585.44 227.971 1598.52 154.077 1696.99 225.409C1795.46 296.742 1779.46 432.52 1527.44 363.765Z" fill="#7D5A8E"/>
</g>
<path d="M1218.79 -164.679C1282.41 -156.839 1272.83 -124.609 1323.38 -129.835C1373.93 -135.062 1364.34 -156.839 1407.92 -164.679C1451.5 -172.519 1468.06 -178.617 1504.67 -164.679C1541.28 -150.742 1534.3 -155.968 1555.22 -129.835C1576.14 -103.702 1588.34 -73.2139 1593.57 -40.9833C1598.8 -8.75267 1609.26 45.2554 1555.22 52.2242C1501.18 59.193 1461.96 14.767 1427.97 52.2242C1393.98 89.6814 1398.34 86.1971 1369.57 121.912C1340.81 157.627 1329.48 176.791 1261.5 183.76C1193.51 190.729 1143.83 168.08 1102.87 121.912C1061.9 75.744 1054.06 64.4195 1075.85 6.056C1097.64 -52.3075 1072.36 -75.8273 1102.87 -110.671C1133.37 -145.515 1155.16 -172.519 1218.79 -164.679Z" fill="white"/>
</g>
<defs>
<filter id="filter0_f" x="626.87" y="822.749" width="1512.26" height="1495.36" filterUnits="userSpaceOnUse" color-interpolation-filters="sRGB">
<feFlood flood-opacity="0" result="BackgroundImageFix"/>
<feBlend mode="normal" in="SourceGraphic" in2="BackgroundImageFix" result="shape"/>
<feGaussianBlur stdDeviation="275" result="effect1_foregroundBlur"/>
</filter>
<filter id="filter1_f" x="159" y="1308" width="996" height="1016" filterUnits="userSpaceOnUse" color-interpolation-filters="sRGB">
<feFlood flood-opacity="0" result="BackgroundImageFix"/>
<feBlend mode="normal" in="SourceGraphic" in2="BackgroundImageFix" result="shape"/>
<feGaussianBlur stdDeviation="200" result="effect1_foregroundBlur"/>
</filter>
<filter id="filter2_f" x="-141" y="2067.93" width="1791.14" height="1527.6" filterUnits="userSpaceOnUse" color-interpolation-filters="sRGB">
<feFlood flood-opacity="0" result="BackgroundImageFix"/>
<feBlend mode="normal" in="SourceGraphic" in2="BackgroundImageFix" result="shape"/>
<feGaussianBlur stdDeviation="300" result="effect1_foregroundBlur"/>
</filter>
<filter id="filter3_f" x="-1581.13" y="-357.251" width="1612.26" height="1595.36" filterUnits="userSpaceOnUse" color-interpolation-filters="sRGB">
<feFlood flood-opacity="0" result="BackgroundImageFix"/>
<feBlend mode="normal" in="SourceGraphic" in2="BackgroundImageFix" result="shape"/>
<feGaussianBlur stdDeviation="300" result="effect1_foregroundBlur"/>
</filter>
<filter id="filter4_f" x="766.155" y="-530.445" width="1587" height="1513.1" filterUnits="userSpaceOnUse" color-interpolation-filters="sRGB">
<feFlood flood-opacity="0" result="BackgroundImageFix"/>
<feBlend mode="normal" in="SourceGraphic" in2="BackgroundImageFix" result="shape"/>
<feGaussianBlur stdDeviation="300" result="effect1_foregroundBlur"/>
</filter>
<clipPath id="clip0">
<rect width="8021" height="3339" fill="white" transform="translate(-6384)"/>
</clipPath>
</defs>
</svg>
